Coordinates
version=1
nRows=24
nColumns=24
inDegrees=yes

Units are S.I. units (second, meters, Newtons, ...)
Angles are in degrees.

endheader
time	pelvis_tilt	pelvis_list	pelvis_rotation	pelvis_tx	pelvis_ty	pelvis_tz	hip_flexion_r	hip_adduction_r	hip_rotation_r	knee_angle_r	ankle_angle_r	subtalar_angle_r	mtp_angle_r	hip_flexion_l	hip_adduction_l	hip_rotation_l	knee_angle_l	ankle_angle_l	subtalar_angle_l	mtp_angle_l	lumbar_extension	lumbar_bending	lumbar_rotation
      4.70000000	      1.08269502	     -4.99292001	    -10.06173159	     -0.23737288	      0.89990197	     -0.17790143	    -19.47751411	      5.53648581	     13.53894313	    -14.49631060	     21.29561300	      4.17634689	      0.00000000	     22.58838701	     -6.00782074	    -11.10071236	     -3.73160177	      5.99710055	     -3.03618624	      0.00000000	    -22.77736655	      0.60137014	      6.55764293
      4.71000000	      1.12898859	     -4.40331929	     -9.87998466	     -0.22011017	      0.89899664	     -0.17927780	    -19.57780831	      4.75580135	     12.51384507	    -16.11122850	     20.00299169	      5.12750271	      0.00000000	     22.91071826	     -5.20312070	    -10.79631747	     -5.90985464	      5.11068864	     -5.28526155	      0.00000000	    -22.45430590	     -0.00807303	      5.80430155
      4.72000000	      1.16410794	     -3.68525912	     -9.62848406	     -0.20249735	      0.89836910	     -0.18083279	    -19.55844043	      3.84951776	     11.35026850	    -17.85865855	     18.28592535	      6.06890706	      0.00000000	     23.08537079	     -4.17754462	     -9.91387885	     -7.79597094	      3.76535561	     -7.59330222	      0.00000000	    -22.04639233	     -0.73375490	      4.92908593
      4.73000000	      1.18763982	     -2.86559113	     -9.27270907	     -0.18477287	      0.89809786	     -0.18262349	    -19.37670606	      2.84537586	     10.01581693	    -19.79405693	     16.18848206	      7.17318207	      0.00000000	     23.22470000	     -2.95753565	     -8.74829387	     -9.54951665	      2.19171908	     -9.58822845	      0.00000000	    -21.62034184	     -1.54072604	      3.96557585
      4.74000000	      1.23295777	     -1.99340131	     -8.85595191	     -0.16703829	      0.89826257	     -0.18459241	    -19.04096996	      1.77639026	      8.61927924	    -21.96114231	     13.65167970	      8.31610446	      0.00000000	     23.27682422	     -1.59600062	     -7.26057180	    -11.17818964	      0.55794331	    -11.41908320	      0.00000000	    -21.24196577	     -2.38094816	      2.84903830
      4.75000000	      1.31203866	     -1.11877591	     -8.33029002	     -0.14929633	      0.89884458	     -0.18675878	    -18.58304138	      0.70522307	      7.19157620	    -24.32472603	     10.69446811	      9.46291015	      0.00000000	     23.26478003	     -0.13717361	     -5.55008472	    -12.79855660	     -0.85324662	    -12.95507891	      0.00000000	    -20.92432746	     -3.19699647	      1.72363176
      4.76000000	      1.41829005	     -0.32203338	     -7.71479280	     -0.13171438	      0.89977185	     -0.18904919	    -17.98609595	     -0.26925385	      5.89543145	    -26.89867463	      7.44468020	     10.52306742	      0.00000000	     23.19927532	      1.31434212	     -3.72833987	    -14.47088094	     -1.82377976	    -14.13807792	      0.00000000	    -20.69654766	     -3.90182870	      0.61509284
      4.77000000	      1.54531316	      0.34473655	     -7.13476443	     -0.11445081	      0.90098879	     -0.19131064	    -17.19884272	     -1.08977409	      4.97465283	    -29.72596957	      4.01994459	     11.23078171	      0.00000000	     23.03012835	      2.66155278	     -1.92863300	    -16.11467437	     -2.38289408	    -15.29865522	      0.00000000	    -20.56335557	     -4.45342279	     -0.44928462
      4.78000000	      1.64566407	      0.88411413	     -6.61595526	     -0.09756172	      0.90235865	     -0.19342336	    -16.14656463	     -1.73225274	      4.44790560	    -32.81358760	      0.64787612	     11.57324466	      0.00000000	     22.79228437	      3.85145341	     -0.37814505	    -17.69043646	     -2.41812470	    -16.22907883	      0.00000000	    -20.45019155	     -4.87265344	     -1.35362272
      4.79000000	      1.66851357	      1.33386540	     -6.23460599	     -0.08115974	      0.90373467	     -0.19529231	    -14.72000390	     -2.23273649	      4.30278017	    -36.20954423	     -2.44052823	     11.45136536	      0.00000000	     22.50594413	      4.86595367	      0.79927349	    -19.08822032	     -1.98743447	    -16.96534769	      0.00000000	    -20.29193132	     -5.21422265	     -2.06994009
      4.80000000	      1.52168606	      1.75757848	     -6.01547934	     -0.06526240	      0.90494958	     -0.19685421	    -12.80844396	     -2.64541534	      4.44611463	    -39.89427765	     -5.07213622	     10.76913899	      0.00000000	     22.25297099	      5.72328888	      1.52820059	    -20.22191998	     -1.17864818	    -17.46029373	      0.00000000	    -19.94613172	     -5.54604685	     -2.59353528
      4.81000000	      1.24507262	      2.23647209	     -6.01442441	     -0.04985161	      0.90606038	     -0.19797045	    -10.47915918	     -3.05644226	      4.86564367	    -43.76921999	     -7.11476971	      9.45715557	      0.00000000	     21.96695476	      6.46448446	      1.72249576	    -20.99412938	     -0.07221420	    -17.61715202	      0.00000000	    -19.44543017	     -6.00286220	     -2.91624134
      4.82000000	      0.92131295	      2.81481487	     -6.14840480	     -0.03479538	      0.90720560	     -0.19879776	     -7.90519803	     -3.51686683	      5.40207529	    -47.65127934	     -8.52768528	      7.52228979	      0.00000000	     21.53754742	      7.18335769	      1.53291237	    -21.33877554	      1.14350593	    -17.50160965	      0.00000000	    -18.86803969	     -6.60278012	     -3.15989420
      4.83000000	      0.58248407	      3.44804582	     -6.34773253	     -0.02006004	      0.90846826	     -0.19944859	     -5.20346233	     -3.97821731	      5.97773863	    -51.37063214	     -9.24015517	      4.99136205	      0.00000000	     20.94199439	      7.87493512	      1.08089716	    -21.27701142	      2.36149730	    -17.14774001	      0.00000000	    -18.27139556	     -7.27530054	     -3.36972537
      4.84000000	      0.27587334	      4.04969048	     -6.54260736	     -0.00551756	      0.91000913	     -0.20002187	     -2.52315854	     -4.35953131	      6.53011473	    -54.74559489	     -9.28221669	      2.01640237	      0.00000000	     20.12945315	      8.49880737	      0.54073698	    -20.85646267	      3.52853956	    -16.53426617	      0.00000000	    -17.70132627	     -7.91184720	     -3.58425473
      4.85000000	      0.02708723	      4.50655840	     -6.65494201	      0.00890746	      0.91193207	     -0.20064996	      0.01576793	     -4.55019311	      7.00217348	    -57.62984572	     -8.72786812	     -1.21800859	      0.00000000	     19.08841282	      8.98514583	      0.02144879	    -20.15374942	      4.60893474	    -15.72514031	      0.00000000	    -17.22053922	     -8.35637747	     -3.87289187
      4.86000000	     -0.12605456	      4.73846720	     -6.65183014	      0.02325535	      0.91433424	     -0.20143166	      2.32194205	     -4.49483584	      7.34637129	    -59.94584117	     -7.76823353	     -4.49649445	      0.00000000	     17.78913196	      9.28776285	     -0.33475164	    -19.22758974	      5.52323770	    -14.86862533	      0.00000000	    -16.89633070	     -8.50319028	     -4.32166417
      4.87000000	     -0.30980078	      4.67000034	     -6.47241902	      0.03739404	      0.91699680	     -0.20242556	      4.51272209	     -4.12268038	      7.48596415	    -61.69709477	     -6.47525412	     -7.57240493	      0.00000000	     16.45456201	      9.31213975	     -0.49238989	    -18.26893127	      6.39468151	    -13.78028650	      0.00000000	    -16.61961773	     -8.26489201	     -4.72667721
      4.88000000	     -0.43984291	      4.34483759	     -6.16594378	      0.05143884	      0.91996638	     -0.20365244	      6.49899752	     -3.51987877	      7.44996640	    -62.88982128	     -5.10849028	    -10.30226348	      0.00000000	     14.98513755	      9.11917866	     -0.40541396	    -17.23224910	      7.07870021	    -12.82827891	      0.00000000	    -16.46566959	     -7.68799118	     -5.27209785
      4.89000000	     -0.54530554	      3.80965136	     -5.76133065	      0.06534046	      0.92308003	     -0.20509228	      8.34062896	     -2.75303838	      7.24157945	    -63.58030802	     -3.82151341	    -12.65259227	      0.00000000	     13.45708748	      8.73954188	     -0.09306883	    -16.16252725	      7.56937360	    -12.07944554	      0.00000000	    -16.39416595	     -6.84066347	     -5.81556759
      4.90000000	     -0.67600025	      3.07091138	     -5.24208083	      0.07906838	      0.92619049	     -0.20667178	     10.09560181	     -1.81710195	      6.88023295	    -63.81450994	     -2.67001600	    -14.46624524	      0.00000000	     11.97023877	      8.14897594	      0.37170420	    -15.12927526	      7.99682575	    -11.33416630	      0.00000000	    -16.34707055	     -5.73252317	     -6.40810120
      4.91000000	     -0.79875191	      2.24099407	     -4.69822712	      0.09264165	      0.92916247	     -0.20834689	     11.77507513	     -0.84618283	      6.43100672	    -63.66816447	     -1.71245469	    -15.86036297	      0.00000000	     10.49786968	      7.45928273	      0.91663643	    -14.09483676	      8.33624790	    -10.76600507	      0.00000000	    -16.33937736	     -4.51422975	     -6.93630126
      4.92000000	     -0.90832948	      1.37390710	     -4.15586054	      0.10606224	      0.93193574	     -0.21000448	     13.38196705	      0.12365499	      5.95849851	    -63.17769483	     -0.94781016	    -16.86918018	      0.00000000	      9.03185034	      6.71155688	      1.52352933	    -13.03886915	      8.59365616	    -10.30689040	      0.00000000	    -16.36523783	     -3.27496548	     -7.40666100
      4.93000000	     -1.01972979	      0.49579625	     -3.66838700	      0.11940670	      0.93438758	     -0.21163768	     14.93333112	      1.07148479	      5.51941544	    -62.37037708	     -0.28812174	    -17.53182471	      0.00000000	      7.59990542	      5.93224112	      2.02478478	    -11.97454751	      8.81242687	    -10.00538529	      0.00000000	    -16.38268276	     -2.03504658	     -7.70698695
